M48
; DRILL file {KiCad 9.0.6} date 2026-02-02T16:05:36-0500
; FORMAT={-:-/ absolute / metric / decimal}
; #@! TF.CreationDate,2026-02-02T16:05:36-05:00
; #@! TF.GenerationSoftware,Kicad,Pcbnew,9.0.6
; #@! TF.FileFunction,Plated,1,4,PTH
FMAT,2
METRIC
; #@! TA.AperFunction,Plated,PTH,ComponentDrill
T1C0.750
; #@! TA.AperFunction,Plated,PTH,ComponentDrill
T2C0.800
; #@! TA.AperFunction,Plated,PTH,ComponentDrill
T3C1.300
; #@! TA.AperFunction,Plated,PTH,ComponentDrill
T4C4.300
%
G90
G05
T1
X30.48Y-60.96
X30.48Y-62.23
X30.48Y-63.5
X30.48Y-96.52
X30.48Y-97.79
X30.48Y-99.06
X43.18Y-60.96
X43.18Y-62.23
X43.18Y-63.5
X43.18Y-96.52
X43.18Y-97.79
X43.18Y-99.06
X55.88Y-60.96
X55.88Y-62.23
X55.88Y-63.5
X55.88Y-96.52
X55.88Y-97.79
X55.88Y-99.06
X68.58Y-60.96
X68.58Y-62.23
X68.58Y-63.5
X68.58Y-96.52
X68.58Y-97.79
X68.58Y-99.06
X81.28Y-60.96
X81.28Y-62.23
X81.28Y-63.5
X81.28Y-96.52
X81.28Y-97.79
X81.28Y-99.06
X127.0Y-60.96
X127.0Y-62.23
X127.0Y-63.5
X127.0Y-96.52
X127.0Y-97.79
X127.0Y-99.06
X139.7Y-60.96
X139.7Y-62.23
X139.7Y-63.5
X139.7Y-96.52
X139.7Y-97.79
X139.7Y-99.06
X152.4Y-60.96
X152.4Y-62.23
X152.4Y-63.5
X152.4Y-96.52
X152.4Y-97.79
X152.4Y-99.06
X165.1Y-60.96
X165.1Y-62.23
X165.1Y-63.5
X165.1Y-96.52
X165.1Y-97.79
X165.1Y-99.06
X177.8Y-60.96
X177.8Y-62.23
X177.8Y-63.5
X177.8Y-96.52
X177.8Y-97.79
X177.8Y-99.06
T2
X30.48Y-34.29
X30.48Y-41.91
X30.48Y-119.38
X30.48Y-127.0
X35.56Y-66.04
X35.56Y-73.66
X35.56Y-86.36
X35.56Y-93.98
X38.1Y-76.2
X38.1Y-83.82
X43.18Y-34.29
X43.18Y-41.91
X43.18Y-119.38
X43.18Y-127.0
X45.72Y-76.2
X45.72Y-83.82
X48.26Y-66.04
X48.26Y-73.66
X48.26Y-86.36
X48.26Y-93.98
X50.8Y-76.2
X50.8Y-83.82
X55.88Y-34.29
X55.88Y-41.91
X55.88Y-119.38
X55.88Y-127.0
X58.42Y-76.2
X58.42Y-83.82
X60.96Y-66.04
X60.96Y-73.66
X60.96Y-86.36
X60.96Y-93.98
X63.5Y-76.2
X63.5Y-83.82
X68.58Y-34.29
X68.58Y-41.91
X68.58Y-119.38
X68.58Y-127.0
X71.12Y-76.2
X71.12Y-83.82
X73.66Y-66.04
X73.66Y-73.66
X73.66Y-86.36
X73.66Y-93.98
X76.2Y-76.2
X76.2Y-83.82
X81.28Y-34.29
X81.28Y-41.91
X81.28Y-119.38
X81.28Y-127.0
X83.82Y-76.2
X83.82Y-83.82
X86.36Y-66.04
X86.36Y-73.66
X86.36Y-86.36
X86.36Y-93.98
X94.095Y-80.01
X99.175Y-77.47
X99.175Y-82.55
X109.22Y-77.47
X109.22Y-82.55
X114.3Y-80.01
X121.92Y-66.04
X121.92Y-73.66
X121.92Y-86.36
X121.92Y-93.98
X124.46Y-76.2
X124.46Y-83.82
X127.0Y-34.29
X127.0Y-41.91
X127.0Y-119.38
X127.0Y-127.0
X132.08Y-76.2
X132.08Y-83.82
X134.62Y-66.04
X134.62Y-73.66
X134.62Y-86.36
X134.62Y-93.98
X137.16Y-76.2
X137.16Y-83.82
X139.7Y-34.29
X139.7Y-41.91
X139.7Y-119.38
X139.7Y-127.0
X144.78Y-76.2
X144.78Y-83.82
X147.32Y-66.04
X147.32Y-73.66
X147.32Y-86.36
X147.32Y-93.98
X149.86Y-76.2
X149.86Y-83.82
X152.4Y-34.29
X152.4Y-41.91
X152.4Y-119.38
X152.4Y-127.0
X157.48Y-76.2
X157.48Y-83.82
X160.02Y-66.04
X160.02Y-73.66
X160.02Y-86.36
X160.02Y-93.98
X162.56Y-76.2
X162.56Y-83.82
X165.1Y-34.29
X165.1Y-41.91
X165.1Y-119.38
X165.1Y-127.0
X170.18Y-76.2
X170.18Y-83.82
X172.72Y-66.04
X172.72Y-73.66
X172.72Y-86.36
X172.72Y-93.98
X177.8Y-34.29
X177.8Y-41.91
X177.8Y-119.38
X177.8Y-127.0
T3
X30.48Y-48.26
X30.48Y-53.26
X30.48Y-106.76
X30.48Y-111.76
X43.18Y-48.26
X43.18Y-53.26
X43.18Y-106.68
X43.18Y-111.68
X55.88Y-48.26
X55.88Y-53.26
X55.88Y-106.68
X55.88Y-111.68
X68.58Y-48.26
X68.58Y-53.26
X68.58Y-106.68
X68.58Y-111.68
X81.28Y-48.26
X81.28Y-53.26
X81.28Y-106.68
X81.28Y-111.68
X101.68Y-49.53
X106.68Y-49.53
X127.0Y-48.26
X127.0Y-53.26
X127.0Y-106.76
X127.0Y-111.76
X139.7Y-48.26
X139.7Y-53.26
X139.7Y-106.76
X139.7Y-111.76
X152.4Y-106.76
X152.4Y-111.76
X152.48Y-48.26
X152.48Y-53.26
X165.1Y-48.26
X165.1Y-53.26
X165.1Y-106.76
X165.1Y-111.76
X177.8Y-48.26
X177.8Y-53.26
X177.8Y-106.76
X177.8Y-111.76
T4
X25.4Y-80.01
X104.14Y-63.5
X104.14Y-95.25
X182.88Y-80.01
M30
